<?xml version="1.0" encoding="UTF-8" standalone="no"?>
<!-- Created with Inkscape (http://www.inkscape.org/) -->

<svg
   width="400"
   height="400"
   viewBox="0 0 105.83333 105.83333"
   version="1.1"
   id="svg4083"
   inkscape:version="1.2.2 (b0a8486541, 2022-12-01)"
   sodipodi:docname="regata-os.svg"
   xmlns:inkscape="http://www.inkscape.org/namespaces/inkscape"
   xmlns:sodipodi="http://sodipodi.sourceforge.net/DTD/sodipodi-0.dtd"
   xmlns="http://www.w3.org/2000/svg"
   xmlns:svg="http://www.w3.org/2000/svg">
  <sodipodi:namedview
     id="namedview4085"
     pagecolor="#ffffff"
     bordercolor="#666666"
     borderopacity="1.0"
     inkscape:showpageshadow="2"
     inkscape:pageopacity="0.0"
     inkscape:pagecheckerboard="0"
     inkscape:deskcolor="#d1d1d1"
     inkscape:document-units="mm"
     showgrid="false"
     inkscape:zoom="0.70644641"
     inkscape:cx="373.70138"
     inkscape:cy="562.67538"
     inkscape:window-width="1854"
     inkscape:window-height="999"
     inkscape:window-x="0"
     inkscape:window-y="0"
     inkscape:window-maximized="1"
     inkscape:current-layer="layer1" />
  <defs
     id="defs4080" />
  <g
     inkscape:label="Layer 1"
     inkscape:groupmode="layer"
     id="layer1">
    <g
       id="g4058"
       transform="matrix(1.2378327,0,0,1.2386614,-77.055765,-200.27483)">
      <path
         style="fill:#0767ce;fill-opacity:1;stroke-width:0.264583"
         d="m 100.63092,247.07539 c -4.3953,-0.36955 -10.47935,-2.09736 -14.81666,-4.20778 -5.01138,-2.4384 -7.29054,-4.07121 -11.2448,-8.05584 -3.29535,-3.32067 -3.5267,-3.59346 -5.19138,-6.12128 -3.09695,-4.70274 -5.31711,-10.22734 -6.4905,-16.15081 -0.85807,-4.33167 -0.84783,-11.98675 0.0219,-16.36114 1.8119,-9.11328 5.44457,-16.06065 11.63446,-22.25054 5.5359,-5.5359 12.08696,-9.22749 19.6047,-11.04745 4.20467,-1.0179 5.80499,-1.19405 10.84792,-1.19405 5.04293,0 6.64325,0.17615 10.84792,1.19405 7.63799,1.84907 14.1529,5.54616 19.71145,11.18586 3.08709,3.13216 3.28109,3.36275 5.02708,5.97509 3.08406,4.61436 5.34385,10.22157 6.52082,16.18007 0.86117,4.35973 0.86074,12.02174 -7.9e-4,16.34908 -0.78579,3.9463 -1.91486,7.44745 -3.45953,10.72769 -1.09601,2.32745 -3.48193,6.29387 -4.74386,7.88632 -1.52084,1.91916 -5.53739,5.9542 -6.74941,6.78048 -0.30962,0.21108 -0.62248,0.45991 -0.69524,0.55295 -0.39841,0.5095 -5.23677,3.42405 -7.34178,4.42258 -5.76016,2.73236 -11.27728,4.02087 -17.79363,4.15565 -2.40109,0.0497 -4.96093,0.0402 -5.68854,-0.0209 z m 7.03045,-7.35538 c 0.37424,-0.30067 1.08126,-0.84433 1.57115,-1.20813 1.00153,-0.74374 5.99863,-4.59441 6.61514,-5.0975 0.22004,-0.17955 2.30364,-1.75521 4.63021,-3.50146 2.32658,-1.74625 4.36359,-3.29406 4.52672,-3.43958 0.16312,-0.14552 1.90256,-1.49182 3.86543,-2.99176 l 3.56884,-2.72718 0.17009,-9.57595 c 0.0935,-5.26677 0.23788,-14.39798 0.32074,-20.29158 l 0.15066,-10.71562 -1.14347,1.1913 c -1.02651,1.06945 -2.05045,2.19573 -7.08225,7.79008 -0.79247,0.88107 -1.81707,2.01867 -2.27688,2.52799 -0.45982,0.50932 -1.58716,1.75948 -2.50521,2.77813 -0.91805,1.01864 -2.19354,2.41763 -2.83441,3.10885 l -1.16524,1.25677 H 105.41243 94.75198 l -2.19626,-2.44739 c -1.20793,-1.34607 -2.38548,-2.62854 -2.61677,-2.84993 -0.23129,-0.22139 -1.25396,-1.3485 -2.27261,-2.50468 -1.01865,-1.15619 -2.03068,-2.29135 -2.24896,-2.52258 -0.21828,-0.23123 -1.28984,-1.41907 -2.38125,-2.63963 -2.26339,-2.53125 -3.96768,-4.40839 -5.2578,-5.79107 l -0.89217,-0.95618 0.1622,4.89479 c 0.0892,2.69214 0.23905,12.03855 0.33297,20.7698 l 0.17078,15.875 3.29294,2.51354 c 1.81112,1.38245 5.15838,3.94793 7.43837,5.70106 2.27998,1.75314 5.45511,4.18666 7.05584,5.40783 1.60073,1.22116 3.68432,2.81915 4.63021,3.55107 0.94588,0.73192 2.48172,1.90061 3.41297,2.59707 l 1.69318,1.2663 0.95265,-0.71134 c 0.52396,-0.39124 1.25885,-0.95735 1.6331,-1.25802 z"
         id="path2468" />
      <path
         style="fill:#b1d1f3;fill-opacity:1;stroke-width:0.264583"
         d="m 107.67811,239.58613 c 0.37425,-0.30067 1.08127,-0.84433 1.57116,-1.20813 1.00153,-0.74374 5.99863,-4.59441 6.61514,-5.0975 0.22003,-0.17955 2.30364,-1.75521 4.63021,-3.50146 2.32657,-1.74625 4.36358,-3.29406 4.52671,-3.43958 0.16313,-0.14552 1.90256,-1.49182 3.86543,-2.99176 l 3.56884,-2.72718 0.17009,-9.57595 c 0.0935,-5.26677 0.23788,-14.39798 0.32074,-20.29158 l 0.15066,-10.71562 -1.14346,1.1913 c -1.02651,1.06945 -2.05046,2.19573 -7.08225,7.79008 -0.79247,0.88107 -1.81707,2.01867 -2.27689,2.52799 -0.45981,0.50932 -1.58715,1.75948 -2.50521,2.77813 -0.91805,1.01864 -2.19353,2.41763 -2.83441,3.10885 l -1.16524,1.25677 H 105.42917 94.768726 l -2.19626,-2.44739 c -1.20793,-1.34607 -2.38548,-2.62854 -2.61677,-2.84993 -0.23129,-0.22139 -1.25396,-1.3485 -2.27261,-2.50468 -1.01865,-1.15619 -2.03068,-2.29135 -2.24896,-2.52258 -0.21828,-0.23123 -1.28984,-1.41907 -2.38125,-2.63963 -2.26339,-2.53125 -3.96768,-4.40839 -5.2578,-5.79107 l -0.89217,-0.95618 0.1622,4.89479 c 0.0892,2.69214 0.23905,12.03855 0.33297,20.7698 l 0.17078,15.875 3.29294,2.51354 c 1.81112,1.38245 5.15838,3.94793 7.43837,5.70106 2.27998,1.75314 5.45511,4.18666 7.05584,5.40783 1.60073,1.22116 3.68432,2.81915 4.63021,3.55107 0.945874,0.73192 2.481714,1.90061 3.412964,2.59707 l 1.69318,1.2663 0.95265,-0.71134 c 0.52396,-0.39124 1.25885,-0.95735 1.6331,-1.25802 z"
         id="path3405"
         sodipodi:nodetypes="ssssssccscssssscccsssssscsscssssscss" />
      <path
         style="fill:#fdfeff;fill-opacity:1;stroke-width:0.264583"
         d="m 101.43563,234.41902 c -1.958813,-2.98051 -3.681963,-5.56065 -3.829223,-5.73365 -0.14727,-0.17299 -0.79951,-1.14797 -1.44942,-2.16662 -0.64992,-1.01865 -1.24641,-1.91161 -1.32554,-1.98438 -0.0791,-0.0728 -0.6709,-0.96572 -1.31505,-1.98437 -0.64415,-1.01865 -1.2168,-1.91161 -1.27255,-1.98438 -0.0558,-0.0728 -3.31595,-0.19182 -7.24486,-0.26458 l -7.14347,-0.13229 2.51218,-1.89707 c 5.01058,-3.78373 6.50281,-4.98703 6.50646,-5.24668 0.002,-0.14552 -1.03446,-1.80734 -2.30334,-3.69292 l -2.30708,-3.42834 -2.12668,-0.6727 c -1.16967,-0.36999 -2.271,-0.76903 -2.44739,-0.88676 -0.21537,-0.14374 -0.32072,-1.078 -0.32072,-2.84427 v -2.63022 h 27.511633 27.51163 l 0.14875,0.59531 c 0.0818,0.32743 0.11385,1.72529 0.0712,3.10637 l -0.0776,2.51106 -2.70215,0.87483 -2.70215,0.87483 -1.9942,2.99456 c -1.09682,1.64701 -1.99421,3.11551 -1.99421,3.26332 0,0.25975 0.99857,1.0713 6.34824,5.15929 l 2.51178,1.91939 -7.0097,0.13229 -7.00969,0.13229 -6.4927,9.7024 -6.49271,9.70239 z"
         id="path3265" />
    </g>
  </g>
</svg>
