<?xml version="1.0" encoding="UTF-8"?>
<svg version="1.1" xmlns="http://www.w3.org/2000/svg" width="160" height="160">
<path d="M0 0 C2.04092063 0.02148338 4.07832417 0.00004621 6.11914062 -0.02539062 C24.99950776 -0.06683104 42.09507348 6.83917784 56.04101562 19.52148438 C56.89566406 20.29492188 57.7503125 21.06835938 58.63085938 21.86523438 C64.5665345 27.5063572 69.03091686 33.39584733 73.04101562 40.52148438 C73.73324219 41.72224609 73.73324219 41.72224609 74.43945312 42.94726562 C80.54892539 54.25904609 82.72124433 65.74428874 82.5625 78.48046875 C82.54101662 80.52138938 82.56245379 82.55879292 82.58789062 84.59960938 C82.63723721 106.40834081 73.01844204 124.15248845 58.29101562 139.64648438 C53.33268265 144.49212797 48.06839018 148.1294554 42.04101562 151.52148438 C40.84025391 152.21371094 40.84025391 152.21371094 39.61523438 152.91992188 C28.30345391 159.02939414 16.81821126 161.20171308 4.08203125 161.04296875 C2.04111062 161.02148537 0.00370708 161.04292254 -2.03710938 161.06835938 C-20.91747651 161.10979979 -38.01304223 154.20379091 -51.95898438 141.52148438 C-53.24095703 140.36132812 -53.24095703 140.36132812 -54.54882812 139.17773438 C-60.48450325 133.53661155 -64.94888561 127.64712142 -68.95898438 120.52148438 C-69.42046875 119.72097656 -69.88195312 118.92046875 -70.35742188 118.09570312 C-76.47808212 106.76320795 -78.63901697 95.26612665 -78.48046875 82.50756836 C-78.45894965 80.45567295 -78.48044109 78.40726174 -78.50585938 76.35546875 C-78.53290943 64.35764486 -75.65309303 53.88407034 -70.14648438 43.27148438 C-69.62610596 42.25610596 -69.62610596 42.25610596 -69.09521484 41.22021484 C-66.25644194 35.82123416 -63.08373042 31.03663849 -58.95898438 26.52148438 C-58.20875 25.69132812 -57.45851563 24.86117188 -56.68554688 24.00585938 C-51.02309568 18.0397436 -45.11591796 13.54919592 -37.95898438 9.52148438 C-37.15847656 9.06 -36.35796875 8.59851562 -35.53320312 8.12304688 C-24.22142266 2.01357461 -12.73618001 -0.15874433 0 0 Z " fill="#161616" transform="translate(77.958984375,-0.521484375)"/>
<path d="M0 0 C30.03 0 60.06 0 91 0 C90.12992243 3.48031029 89.46135861 5.12786705 87.56640625 8.00390625 C86.8403418 9.11475586 86.8403418 9.11475586 86.09960938 10.24804688 C85.59236328 11.01181641 85.08511719 11.77558594 84.5625 12.5625 C84.05912109 13.33013672 83.55574219 14.09777344 83.03710938 14.88867188 C81.03758181 17.93443298 79.02102443 20.96846336 77 24 C76.34 24 75.68 24 75 24 C73.36136603 21.56866946 71.85078666 19.15228465 70.375 16.625 C69.95476562 15.92632812 69.53453125 15.22765625 69.1015625 14.5078125 C66 9.27140828 66 9.27140828 66 7 C60.72 7 55.44 7 50 7 C51.23878906 8.96324219 52.47757813 10.92648438 53.75390625 12.94921875 C54.94553629 14.8600423 56.13204963 16.77395134 57.31811523 18.68823242 C58.14419563 20.01543908 58.97554416 21.33938196 59.81225586 22.65991211 C61.015205 24.56047168 62.19861917 26.47202594 63.37890625 28.38671875 C63.94442955 29.26670784 63.94442955 29.26670784 64.52137756 30.16447449 C66.13357682 32.81748385 67.02178369 34.54921683 66.87011719 37.68774414 C66.01734868 39.9538975 65.12192043 41.65727696 63.69921875 43.609375 C63.22250732 44.27316162 62.7457959 44.93694824 62.25463867 45.62084961 C61.73748291 46.32346924 61.22032715 47.02608887 60.6875 47.75 C59.59352086 49.26676184 58.49977771 50.78369391 57.40625 52.30078125 C56.56126953 53.46407959 56.56126953 53.46407959 55.69921875 54.65087891 C52.9949996 58.38938418 50.34274811 62.16414051 47.6875 65.9375 C46.75398012 67.25916677 45.82038776 68.58078233 44.88671875 69.90234375 C41.58115711 74.59454153 38.29146693 79.29790439 35 84 C68.99 84 102.98 84 138 84 C131.04976877 94.42534685 122.91761021 101.91869958 112 108 C111.20078125 108.46019531 110.4015625 108.92039062 109.578125 109.39453125 C98.26947549 115.51081064 86.77661318 117.68022145 74.04101562 117.52148438 C72.000095 117.500001 69.96269145 117.52143817 67.921875 117.546875 C49.04150786 117.58831542 31.94594215 110.68230653 18 98 C16.71802734 96.83984375 16.71802734 96.83984375 15.41015625 95.65625 C9.47448113 90.01512718 5.01009877 84.12563704 1 77 C0.53851563 76.19949219 0.07703125 75.39898437 -0.3984375 74.57421875 C-6.51909774 63.24172358 -8.6800326 51.74464228 -8.52148438 38.98608398 C-8.49996527 36.93418858 -8.52145672 34.88577737 -8.546875 32.83398438 C-8.57520535 20.39192778 -5.54526845 11.09053691 0 0 Z " fill="#151515" transform="translate(8,43)"/>
<path d="M0 0 C1.12550923 0.00276538 1.12550923 0.00276538 2.27375603 0.00558662 C3.13474907 0.0028373 3.99574211 0.00008797 4.88282585 -0.00274467 C5.82941063 0.00444588 6.77599541 0.01163643 7.75126457 0.01904488 C8.74642082 0.01875282 9.74157707 0.01846077 10.76688957 0.01815987 C14.06759571 0.01955706 17.36807817 0.03513661 20.66874504 0.05078316 C22.95275054 0.0545119 25.23675764 0.05735953 27.5207653 0.0593586 C33.54108384 0.06700596 39.56130633 0.08666392 45.58158684 0.10876656 C51.72130344 0.12920125 57.86103551 0.13835522 64.00077629 0.14843941 C76.05420397 0.16990876 88.10756028 0.20405799 100.16093254 0.24609566 C98.50466423 4.56009683 96.37869751 8.35254365 93.91093254 12.24609566 C93.48779778 12.92454536 93.06466301 13.60299507 92.62870598 14.30200386 C89.96062219 18.53974391 87.18309165 22.68244366 84.31718254 26.78906441 C83.67039543 27.72556831 83.02360832 28.66207222 82.3572216 29.62695503 C81.07282709 31.4791125 79.77292343 33.32062282 78.45683098 35.15039253 C77.86934074 36.00052925 77.28185051 36.85066597 76.67655754 37.72656441 C76.14320793 38.47832954 75.60985832 39.23009468 75.0603466 40.00464058 C73.90729325 42.2400499 73.90729325 42.2400499 74.77494621 44.65136909 C76.35312875 47.60590916 78.03570719 50.44634504 79.82108879 53.28125191 C80.53924165 54.43160888 81.25733895 55.58200055 81.97538567 56.73242378 C83.10175064 58.52619138 84.2298817 60.31882589 85.35941887 62.11059761 C86.45532876 63.85219675 87.54470629 65.59775344 88.63358879 67.34375191 C89.28593498 68.38023872 89.93828117 69.41672554 90.61039543 70.48462105 C91.92925098 72.83347558 92.71056199 74.61821298 93.16093254 77.24609566 C88.14124282 78.20987608 83.04191499 79.1087547 78.16093254 77.24609566 C74.0555962 73.48810551 71.63268734 68.25985854 69.29496574 63.28247261 C67.85419851 60.69529511 66.05095638 58.51870943 64.16093254 56.24609566 C61.55409984 59.97340515 58.95093775 63.7032636 56.34843254 67.43359566 C55.61044426 68.48869331 54.87245598 69.54379097 54.11210442 70.63086128 C53.39989738 71.65244331 52.68769035 72.67402534 51.95390129 73.72656441 C50.97199821 75.13264961 50.97199821 75.13264961 49.97025871 76.56714058 C48.2798614 79.0700052 46.71482679 81.65627191 45.16093254 84.24609566 C75.19093254 84.24609566 105.22093254 84.24609566 136.16093254 84.24609566 C132.16093254 92.24609566 132.16093254 92.24609566 130.16093254 94.24609566 C128.30624771 94.49219131 128.30624771 94.49219131 126.01014519 94.48660469 C125.14073799 94.48935402 124.2713308 94.49210335 123.37557793 94.49493599 C121.94167465 94.48415016 121.94167465 94.48415016 120.47880363 94.47314644 C119.47389381 94.47343849 118.46898399 94.47373055 117.43362236 94.47403145 C114.10045147 94.47263422 110.76750205 94.45705448 107.43437004 94.44140816 C105.12794428 94.43767943 102.82151694 94.4348318 100.51508904 94.43283272 C94.43558718 94.42518525 88.35618043 94.40552719 82.27671623 94.38342476 C76.07667642 94.36299029 69.8766213 94.35383614 63.67655754 94.34375191 C51.50464069 94.32228236 39.33279451 94.28813301 27.16093254 94.24609566 C29.08355272 90.25250162 31.51119929 86.6901882 34.03593254 83.05859566 C34.51699455 82.36314644 34.99805656 81.66769722 35.49369621 80.95117378 C39.13251676 75.7014201 42.79673484 70.46937771 46.47343254 65.24609566 C46.95215813 64.56522896 47.43088371 63.88436226 47.92411613 63.18286324 C48.62335197 62.19322578 48.62335197 62.19322578 49.33671379 61.18359566 C49.79126945 60.53519722 50.24582512 59.88679878 50.7141552 59.21875191 C51.72645436 57.83849925 52.78846905 56.493976 53.88505363 55.17968941 C54.44402336 54.50035347 55.00299309 53.82101753 55.57890129 53.12109566 C56.09605705 52.52039253 56.61321281 51.91968941 57.14603996 51.30078316 C58.64703378 48.26196575 58.06239706 46.46755757 57.16093254 43.24609566 C55.6942861 40.33084414 55.6942861 40.33084414 53.78202629 37.48047066 C53.10849113 36.42601753 52.43495598 35.37156441 51.74101067 34.28515816 C51.03395988 33.19976753 50.3269091 32.11437691 49.59843254 30.99609566 C48.19746449 28.82669092 46.80012666 26.65493605 45.40702629 24.48047066 C44.47394646 23.0452607 44.47394646 23.0452607 43.52201653 21.58105659 C42.16093254 19.24609566 42.16093254 19.24609566 42.16093254 17.24609566 C53.03535584 15.44481082 53.03535584 15.44481082 58.16093254 17.24609566 C62.60355395 21.14412914 64.98510374 26.86696334 67.16093254 32.24609566 C67.16093254 32.90609566 67.16093254 33.56609566 67.16093254 34.24609566 C69.41061533 32.12717491 71.11746165 29.97034926 72.78983879 27.37500191 C73.26743645 26.63572456 73.7450341 25.89644722 74.23710442 25.13476753 C74.7275927 24.36713081 75.21808098 23.59949409 75.72343254 22.80859566 C76.21778801 22.04482613 76.71214348 21.28105659 77.22147942 20.49414253 C79.3930641 17.11775444 81.36036207 13.8472366 83.16093254 10.24609566 C53.13093254 10.24609566 23.10093254 10.24609566 -7.83906746 10.24609566 C-2.91077283 0.3895064 -2.91077283 0.3895064 0 0 Z " fill="#E9E9E9" transform="translate(15.839067459106445,32.75390434265137)"/>
</svg>
