<?xml version="1.0" encoding="UTF-8"?>
<svg version="1.1" xmlns="http://www.w3.org/2000/svg" width="160" height="160">
<path d="M0 0 C2.7109375 1.98828125 2.7109375 1.98828125 4.625 3.6875 C4.625 4.3475 4.625 5.0075 4.625 5.6875 C5.19734375 5.92082031 5.7696875 6.15414063 6.359375 6.39453125 C17.98591037 13.02967471 25.14311137 30.96521982 28.93359375 43.1015625 C32.97885982 58.2313147 33.00125813 78.23822038 26.625 92.6875 C26.19840088 93.66033936 26.19840088 93.66033936 25.76318359 94.65283203 C21.9831197 103.11129013 17.73411727 110.67007273 11.625 117.6875 C11.18027344 118.27402344 10.73554688 118.86054688 10.27734375 119.46484375 C0.52969846 131.99753055 -16.90505034 141.29664383 -32.4140625 144.28515625 C-57.76809397 146.86056576 -80.20676296 143.77762477 -100.6784668 127.7902832 C-112.29176635 118.17586623 -119.84117164 106.60280315 -125.375 92.6875 C-126.02662109 91.16382812 -126.02662109 91.16382812 -126.69140625 89.609375 C-132.84383101 72.54550702 -131.62081162 50.24069307 -124.375 33.6875 C-124.10155762 33.05102539 -123.82811523 32.41455078 -123.54638672 31.75878906 C-114.94598929 12.43588142 -99.84468136 -2.07242841 -80.375 -10.3125 C-52.95914102 -20.60581889 -23.86034861 -16.81208707 0 0 Z " fill="#6305AD" transform="translate(129.375,15.3125)"/>
<path d="M0 0 C2.62444649 1.22756368 5.15847194 2.55369859 7.6875 3.96875 C8.67234375 4.51660156 9.6571875 5.06445312 10.671875 5.62890625 C11.41953125 6.05042969 12.1671875 6.47195312 12.9375 6.90625 C14.16112938 21.3688695 14.16112938 21.3688695 11.26171875 25.01171875 C9.18495786 26.24562605 7.20894118 27.09843344 4.9375 27.90625 C3.9475 28.56625 2.9575 29.22625 1.9375 29.90625 C-3.73627053 31.01332718 -7.37030975 28.23628958 -11.98828125 25.31640625 C-14.0625 23.90625 -14.0625 23.90625 -15.0625 22.90625 C-15.13569621 20.20970146 -15.15492537 17.53933542 -15.125 14.84375 C-15.12048828 14.08513672 -15.11597656 13.32652344 -15.11132812 12.54492188 C-15.0995068 10.66533129 -15.08157078 8.78578101 -15.0625 6.90625 C-12.98676919 5.70340599 -10.90366905 4.51919299 -8.8125 3.34375 C-7.93271484 2.83038086 -7.93271484 2.83038086 -7.03515625 2.30664062 C-2.66967981 -0.12134908 -2.66967981 -0.12134908 0 0 Z " fill="#FBFAFC" transform="translate(108.0625,105.09375)"/>
<path d="M0 0 C3.29895072 0.09530302 6.01112631 0.56494475 9 2 C10.77616888 4.52072452 11.97490083 7.14490281 13.3125 9.921875 C19.69263897 21.55972108 31.72447752 28.82565831 44.13696289 32.66015625 C50.72764595 34.33121752 57.05996505 34.07844832 63.80273438 33.74609375 C69.57905113 33.59582996 72.52988314 34.2688059 77 38 C72.38484183 42.61515817 65.3487556 42.21760265 59.1875 42.25 C41.77006124 42.09960766 27.20498028 36.83476806 14.5234375 24.61328125 C7.78620898 17.43666826 2.11677493 9.7371647 0 0 Z " fill="#F6F3F8" transform="translate(21,100)"/>
<path d="M0 0 C0.81082031 0.42539063 1.62164062 0.85078125 2.45703125 1.2890625 C3.62298828 1.95035156 3.62298828 1.95035156 4.8125 2.625 C5.99779297 3.29402344 5.99779297 3.29402344 7.20703125 3.9765625 C7.79871094 4.31429687 8.39039062 4.65203125 9 5 C10.42371704 15.98107678 10.42371704 15.98107678 9 21 C5.5756056 24.74509165 1.92988297 26.81250994 -3 28 C-6.125 27.25 -6.125 27.25 -9 26 C-9.77085938 25.76023437 -10.54171875 25.52046875 -11.3359375 25.2734375 C-13.92436435 24.13294291 -15.24721441 23.25237183 -17 21 C-18.36379151 15.6594383 -18.94732332 10.27734475 -17 5 C-12.18169483 -0.09384967 -6.59858136 -3.59922619 0 0 Z " fill="#FBFAFC" transform="translate(35,69)"/>
<path d="M0 0 C12.63928356 7.58357013 21.1766233 20.44995916 25.375 34.48828125 C28.5376188 52.25824566 26.1232409 69.79704425 16.08618164 84.83764648 C15.09754163 86.25394142 14.05403632 87.63167699 13 89 C12.67 89 12.34 89 12 89 C10.22404706 80.79832641 11.47875959 76.15555981 15.49609375 68.89453125 C20.99567204 58.30962861 20.30600589 44.19972983 17.09765625 33.0078125 C13.6571777 23.58016665 9.11499082 16.81181364 1.7578125 10.078125 C-0.26170635 7.69060494 -0.57329378 6.52452207 -0.5625 3.4375 C-0.376875 2.303125 -0.19125 1.16875 0 0 Z " fill="#F6F0F8" transform="translate(115,30)"/>
<path d="M0 0 C0.78117187 0.26941406 1.56234375 0.53882813 2.3671875 0.81640625 C2.94726562 1.02136719 3.52734375 1.22632813 4.125 1.4375 C4.40078307 3.05772555 4.66266518 4.68126111 4.86328125 6.3125 C5.04116766 7.75683142 5.26985388 9.19561374 5.54296875 10.625 C5.85240828 13.20814742 5.85997355 14.9291891 5.125 17.4375 C2.23985663 20.90762323 -0.89571804 23.32222824 -4.875 25.4375 C-8.5 25.6875 -8.5 25.6875 -11.875 24.4375 C-12.59171875 24.28539063 -13.3084375 24.13328125 -14.046875 23.9765625 C-16.72023115 23.17076366 -17.99391712 22.52460624 -19.875 20.4375 C-21.58724473 15.16428253 -21.88277727 10.81981881 -20.875 5.4375 C-14.89213815 -3.01166979 -9.10958252 -3.17455149 0 0 Z " fill="#FBF9FC" transform="translate(102.875,22.5625)"/>
<path d="M0 0 C-1.5 3 -1.5 3 -3 6 C-5.15418307 6.37283938 -7.32567535 6.64734635 -9.5 6.875 C-15.70831116 7.69188305 -20.54521596 8.97950028 -26 12 C-26.82113281 12.433125 -27.64226563 12.86625 -28.48828125 13.3125 C-39.36616342 19.3869471 -46.80591856 27.86961088 -51.375 39.5 C-53.26419888 42.40645981 -53.94976736 42.54713841 -57.1875 43.375 C-58.445625 43.58125 -59.70375 43.7875 -61 44 C-56.16739473 26.94374612 -45.57599761 14.45363467 -30.24609375 5.66015625 C-19.95566429 0.39730123 -11.36030974 -0.55870376 0 0 Z " fill="#F5F2F8" transform="translate(81,19)"/>
<path d="M0 0 C0.99 0 1.98 0 3 0 C8.66727575 6.1211233 12.40245692 13.13399385 15 21 C15.33 21.99 15.66 22.98 16 24 C17.18701979 36.33806417 17.38346126 47.58404573 10 58 C8.0625 57.1875 8.0625 57.1875 6 56 C4.77346885 52.32040654 5.36778439 51.78926358 6.9375 48.375 C10.75577014 38.34372584 10.55872133 26.40920148 6.35546875 16.515625 C3.95651025 12.06337926 1.08740377 7.99801444 -2 4 C-1.34 2.68 -0.68 1.36 0 0 Z " fill="#F5F0F7" transform="translate(111,45)"/>
<path d="M0 0 C1.32421875 1.50390625 1.32421875 1.50390625 2.6875 3.5625 C8.39188313 11.47593345 15.47668696 17.35647873 25 20 C30.97054109 20.80634015 36.98299012 20.9271869 43 21 C43 23.31 43 25.62 43 28 C27.69921389 28.81580021 15.93774569 26.42369014 4 16 C-5 6.54396423 -5 6.54396423 -5 1 C-3 0 -3 0 0 0 Z " fill="#F2EDF6" transform="translate(43,99)"/>
<path d="M0 0 C7.26554474 7.46078011 11.03655868 15.70357364 11.375 26 C11.22888424 31.46194608 10.19766504 36.01455616 8 41 C7.566875 42.010625 7.13375 43.02125 6.6875 44.0625 C5 46 5 46 1.8125 46.3125 C0.884375 46.209375 -0.04375 46.10625 -1 46 C0.08300682 43.25082883 1.16710692 40.70434929 2.625 38.125 C5.77580647 30.74080228 5.0786338 20.93388091 2.4375 13.5 C0.23405013 8.74309378 -3.03494181 5.36361678 -7 2 C-4 0 -4 0 0 0 Z " fill="#EFE8F4" transform="translate(104,52)"/>
<path d="M0 0 C0.66 0 1.32 0 2 0 C2.93469245 1.50622413 3.79728934 3.05743623 4.625 4.625 C8.48365966 11.28566924 13.59340452 15.6943656 21 18 C24.0992637 18.37021302 27.19464551 18.50688081 30.3125 18.625 C31.14845703 18.66367188 31.98441406 18.70234375 32.84570312 18.7421875 C34.89679259 18.83595159 36.94836515 18.91904245 39 19 C38.34 20.98 37.68 22.96 37 25 C24.69563754 25.51347417 15.63437696 24.04610105 6 16 C-0.78102793 9.25582548 -0.78102793 9.25582548 -1.20703125 4.8671875 C-0.9375 2.9375 -0.9375 2.9375 0 0 Z " fill="#EEE8F4" transform="translate(49,89)"/>
<path d="M0 0 C0 1.65 0 3.3 0 5 C-0.60585937 5.08636719 -1.21171875 5.17273437 -1.8359375 5.26171875 C-12.7217251 7.08718159 -21.58797623 11.71848883 -29 20 C-30.66087181 22.64607077 -32.14584983 25.28655644 -33.515625 28.09375 C-34.25039063 29.03734375 -34.25039063 29.03734375 -35 30 C-37.671875 30.28125 -37.671875 30.28125 -40 30 C-38.44370452 19.99774139 -30.76754894 12.89143991 -23 7 C-15.84682088 2.61854453 -8.50765918 -0.41500776 0 0 Z " fill="#F1EDF5" transform="translate(76,32)"/>
<path d="M0 0 C1.3125 2.0625 1.3125 2.0625 2 4 C1.16597656 4.07476562 0.33195312 4.14953125 -0.52734375 4.2265625 C-11.04090419 5.454951 -18.09858711 8.82345399 -24.78125 17.12109375 C-26.80749579 20.24488934 -27.88126554 23.45734087 -29 27 C-29.66 27 -30.32 27 -31 27 C-33 24 -33 24 -32.80859375 21.6171875 C-30.04855968 12.68374389 -23.02898034 6.31318735 -15 2 C-9.93076104 -0.12937509 -5.39488578 -1.87962519 0 0 Z " fill="#EDE8F3" transform="translate(79,44)"/>
<path d="M0 0 C0.33 0 0.66 0 1 0 C1.15855469 0.99257812 1.31710938 1.98515625 1.48046875 3.0078125 C5.05122994 24.26635899 13.21577979 42.40445789 30.0625 56.5 C31.031875 57.325 32.00125 58.15 33 59 C33 59.66 33 60.32 33 61 C18.57890319 54.29768408 9.43719112 38.3037096 4 24 C1.14303149 15.94623121 -0.71103194 8.571885 0 0 Z " fill="#280078" transform="translate(0,84)"/>
</svg>
